<svg version="1.1" id="cheatsheet-logo" xmlns="http://www.w3.org/2000/svg" xmlns:xlink="http://www.w3.org/1999/xlink" x="0px" y="0px"
	 viewBox="0 0 454.7 149.4" style="enable-background:new 0 0 454.7 149.4;" xml:space="preserve">
<g>
	<path d="M80,72.8c7.2-6.1,14-12.7,21.2-19c-2.5-4.2-5-8.5-7.3-12.8c-9.3,7.6-18.7,15.1-28,22.7c-6.5-8.5-11.6-18-17.9-26.7
		c0.1,0.1,0.1,0.2,0.2,0.2c-1.8-2.4-3.4-5-5-7.6c-4.8,3.3-9.5,6.8-14,10.5c1.3,10.1,8.9,18,15.4,25.3c1.7,3.7,3.9,7.2,6.4,10.5
		c-8.7,7.6-18.4,14.5-26.1,23.1c3.5,4.7,7.1,9.4,10.7,14.1c8.9-7,17.4-14.4,25.5-22.3c4.2,5.8,8.7,11.5,12.6,17.5c0,0,0,0,0,0
		c1.5,2.2,3.4,4.1,4.6,6.4c1,1.8,1.7,3.9,3.4,5.3c4.1-4.3,8.8-8,13.3-11.8c-3.8-6-7.2-12.4-11.9-17.6c-2.7-4.3-4.9-9-7.8-13.2
		C76.8,75.8,78.4,74.3,80,72.8z"/>
	<path d="M206.4,67.6c-1.2-9.2-3.1-19.2-8.9-26.7c-18.3-17.5-46.8-12.6-61.6,6.9c-9.7,13.2-12.2,27.8-7.8,43.6
		c4.7,12.7,16.9,23.8,30.9,24.3c12.3,0.9,20.3,1.2,29.5-8.3c3.2-2.9,7-5.2,9.6-8.7C203.9,89.6,207.5,78.5,206.4,67.6z M155.6,88.8
		c-7.1-3.7-7-9.7-6-16.7c2.2-4.4,5.8-8,9.5-11.2c3.1-2.1,7.1-3,10.8-2.6c2.2,0.8,4.4,1.4,6.8,1.6c5.3,2.9,6.3,9.4,5.1,14.8
		c-0.8,2.8-0.9,5.6-2.3,8.1c-2.3,4.3-6.3,8.8-11.4,9.3C162.7,91.8,160.2,93,155.6,88.8z"/>
	<path d="M426.4,96.4c-1.4-10.2-3.3-20.3-4.8-30.5c-2-12-3.3-24.2-5.5-36.2c-24.8,5.6-49.8,10.7-75.1,13.8
			c4,24.4,8.8,48.6,13.4,72.8c20.6-5.4,41.7-8.8,62.6-13c3-0.6,10.1-1.7,10.1-1.7S426.9,98.3,426.4,96.4z M400.9,84.8
			c-10,2.6-20,4.9-29.8,8.1c-0.5-11.7-5.6-22.5-6.7-34.1c11.6-1.5,24.3-4.4,32.9-5.3c2.6,11.3,3.5,20.4,4.6,31
			C401.6,84.7,401.3,84.8,400.9,84.8z"/>
	<path d="M306.1,109.3c-3.1-5.8-5-12.1-7.5-18.2c-3.4-8-7.6-15.6-11.1-23.5C281.7,55.2,277.2,42,270.6,30c-6,11.3-10.2,23.5-15.9,35
		c-7.5,15.6-16.5,30.4-24.3,45.9c26.3,0.4,52.6,2,78.9,4.1C308.2,113,307.1,111.2,306.1,109.3z M275.1,90.5
		c-4.7,0.3-9.5,0.5-14.2,0.2c3.7-6.4,6-13.6,9.3-20.2c2.1,7,5.8,13.4,8.5,20.2C277.5,90.5,276.3,90.5,275.1,90.5z"/>
</g>
</svg>
